<svg width="233" height="135" viewBox="0 0 233 135" fill="none" xmlns="http://www.w3.org/2000/svg">
<path d="M170.627 108.889C200.696 108.889 225.072 84.5134 225.072 54.4445C225.072 24.3757 200.696 0 170.627 0C140.558 0 116.183 24.3757 116.183 54.4445C116.183 84.5134 140.558 108.889 170.627 108.889Z" fill="#D2EAEA"/>
<path d="M147.653 91.5957C149.267 91.5957 150.575 90.3535 150.575 88.8212C150.575 87.2889 149.267 86.0467 147.653 86.0467C146.04 86.0467 144.732 87.2889 144.732 88.8212C144.732 90.3535 146.04 91.5957 147.653 91.5957Z" fill="#316B6E"/>
<path d="M169.266 95.0428C170.958 95.0428 172.33 93.7394 172.33 92.1317C172.33 90.5239 170.958 89.2205 169.266 89.2205C167.574 89.2205 166.203 90.5239 166.203 92.1317C166.203 93.7394 167.574 95.0428 169.266 95.0428Z" fill="#316B6E"/>
<path d="M179.975 92.6309C181.589 92.6309 182.897 91.3887 182.897 89.8564C182.897 88.324 181.589 87.0818 179.975 87.0818C178.362 87.0818 177.054 88.324 177.054 89.8564C177.054 91.3887 178.362 92.6309 179.975 92.6309Z" fill="#316B6E"/>
<path d="M173.06 90.5973L179.823 88.322C181.011 87.9441 182.049 87.2025 182.793 86.202C183.536 85.2015 183.945 83.9928 183.964 82.7467V41.4338C183.925 39.7485 183.256 38.139 182.089 36.9229C180.921 35.7069 179.34 34.9727 177.658 34.8653L158.51 32.6268C156.198 32.4324 153.35 31.9226 150.05 34.1507L144.417 37.561" fill="#316B6E"/>
<path d="M173.249 90.5972L145.058 86.4617C144.407 86.4521 143.787 86.1851 143.333 85.7192C142.879 85.2534 142.628 84.6267 142.635 83.9762V41.7437C142.635 37.8605 144.679 36.6782 148.468 36.6782L168.788 38.738C170.636 38.7671 172.397 39.5262 173.687 40.8494C174.976 42.1727 175.69 43.9526 175.672 45.8004V88.1328C175.675 88.78 175.422 89.4021 174.968 89.8637C174.514 90.3253 173.896 90.5889 173.249 90.5972V90.5972Z" fill="#358387"/>
<path d="M176.003 34.7444H174.043V12.0123C174.018 11.1064 173.635 10.2471 172.978 9.62271C172.321 8.99831 171.444 8.65963 170.538 8.68082H170.412L165.32 8.06601C164.436 8.0636 163.585 8.4019 162.944 9.01059C162.303 9.61929 161.921 10.4516 161.878 11.3345L161.442 33.0681L159.482 33.0314L159.918 11.3029C159.986 9.91002 160.594 8.59847 161.614 7.64678C162.633 6.69509 163.983 6.17819 165.378 6.20583H165.525L170.622 6.82063C172.024 6.80218 173.377 7.33662 174.388 8.30827C175.399 9.27992 175.987 10.6106 176.024 12.0123L176.003 34.7444Z" fill="#358387"/>
<path d="M175.047 53.8981V53.7404C175.077 52.611 175.552 51.5393 176.369 50.7588C177.186 49.9782 178.278 49.5522 179.408 49.5734L183.959 49.6785C185.088 49.7074 186.16 50.1826 186.94 50.9999C187.72 51.8173 188.144 52.9104 188.12 54.0399V54.1976" stroke="#802801" stroke-width="4" stroke-miterlimit="10"/>
<path d="M197.826 86.4513H196.412L196.339 69.2157H198.131C198.402 69.2198 198.67 69.2775 198.918 69.3856C199.167 69.4936 199.392 69.6499 199.58 69.8453C199.768 70.0407 199.916 70.2714 200.014 70.5241C200.113 70.7768 200.16 71.0465 200.154 71.3176L199.923 84.3179C199.927 84.5961 199.876 84.8724 199.772 85.1307C199.669 85.389 199.515 85.6242 199.32 85.8227C199.125 86.0212 198.892 86.1789 198.636 86.2868C198.38 86.3947 198.104 86.4506 197.826 86.4513Z" fill="#802801"/>
<path d="M196.722 65.1013H199.071C199.298 65.1053 199.521 65.1544 199.729 65.2457C199.936 65.337 200.123 65.4686 200.279 65.6329C200.435 65.7972 200.557 65.991 200.637 66.2028C200.718 66.4147 200.755 66.6404 200.748 66.8669L200.679 70.4874C200.677 70.9484 200.494 71.3901 200.17 71.7181C199.846 72.046 199.406 72.2342 198.945 72.2425V72.2425C198.633 72.2364 198.326 72.1684 198.04 72.0424C197.755 71.9164 197.497 71.7349 197.283 71.5085C197.068 71.2822 196.901 71.0154 196.79 70.7237C196.679 70.4321 196.628 70.1213 196.638 69.8095L196.722 65.1013Z" fill="#802801"/>
<path d="M164.285 86.8507H165.672L166.282 69.6046H164.9C163.759 69.6046 163.591 70.5557 163.575 71.7065L162.256 84.712C162.245 84.9866 162.289 85.2607 162.386 85.518C162.482 85.7753 162.629 86.0106 162.819 86.2101C163.008 86.4095 163.235 86.5689 163.487 86.679C163.739 86.789 164.01 86.8474 164.285 86.8507V86.8507Z" fill="#802801"/>
<path d="M166.282 65.5058H163.948C163.013 65.5058 163.008 66.2888 162.997 67.2504L162.95 70.9287C162.95 71.8903 162.918 72.6733 163.854 72.668C164.484 72.657 165.085 72.3993 165.527 71.9503C165.969 71.5013 166.217 70.8968 166.218 70.2666L166.282 65.5058Z" fill="#802801"/>
<path d="M191.746 94.964H169.813C169.193 94.9683 168.579 94.8485 168.006 94.6117C167.433 94.3749 166.913 94.0259 166.477 93.5851C166.042 93.1444 165.698 92.6209 165.468 92.0455C165.238 91.4701 165.125 90.8544 165.136 90.2347L166.36 56.1996C166.397 53.6038 168.546 51.1288 171.168 51.1288L191.956 51.4861C192.576 51.4818 193.191 51.6016 193.764 51.8383C194.337 52.075 194.857 52.424 195.293 52.8647C195.73 53.3053 196.073 53.8287 196.304 54.4042C196.535 54.9796 196.649 55.5954 196.638 56.2154L196.554 89.8826C196.528 92.5047 194.368 94.964 191.746 94.964Z" fill="#AD3509"/>
<path d="M192.061 71.6381H170.517C168.105 71.6381 165.788 69.3365 165.83 66.9403L166.355 55.8633C166.387 53.4724 168.368 51.1655 170.78 51.1655L192.324 51.5229C192.893 51.5186 193.457 51.6279 193.983 51.8442C194.509 52.0606 194.987 52.3797 195.388 52.7829C195.789 53.1861 196.106 53.6653 196.32 54.1924C196.533 54.7195 196.64 55.284 196.633 55.8528L196.859 66.9193C196.834 68.1767 196.318 69.3745 195.422 70.2564C194.525 71.1382 193.319 71.6342 192.061 71.6381V71.6381Z" fill="#D83F12"/>
<path d="M174.169 66.7512H170.317L170.212 77.1083C170.212 77.6811 170.438 78.1592 170.738 78.1592H173.538C173.827 78.1592 174.064 77.6916 174.064 77.1083L174.169 66.7512Z" fill="#802801"/>
<path d="M193.086 66.788L189.234 66.8142L189.129 77.1661C189.129 77.7441 189.355 78.2171 189.655 78.2171H192.456C192.745 78.2171 192.981 77.7494 192.981 77.1661L193.086 66.788Z" fill="#802801"/>
<path d="M17.12 92.0686C24.6605 92.0686 29.4003 96.7138 29.4003 103.603C29.4003 110.639 24.5082 115.284 16.7889 115.284H8.90678V125.515H0.646301V92.0686H17.12ZM16.1741 108.395C19.369 108.395 21.3133 106.545 21.3133 103.703C21.3133 101.007 19.369 99.11 16.1741 99.11H8.88576V108.395H16.1741Z" fill="#316B6E"/>
<path d="M60.1512 125.515H52.1639V123.518C50.2197 125.268 47.6238 126.267 44.3764 126.267C37.7396 126.267 32.1433 120.922 32.1433 112.988C32.1433 105.053 37.7396 99.6932 44.3764 99.6932C47.6238 99.6932 50.2197 100.692 52.1639 102.436V100.439H60.1512V125.515ZM52.1639 112.988C52.1639 109.141 49.2686 106.498 46.0264 106.498C42.532 106.498 39.9834 109.126 39.9834 112.988C39.9834 116.85 42.532 119.477 46.0264 119.477C49.2686 119.477 52.1639 116.882 52.1639 112.988V112.988Z" fill="#316B6E"/>
<path d="M83.414 114.885L90.7707 116.461C89.5201 122.399 84.2285 126.246 77.9859 126.246C70.4978 126.246 64.3235 120.901 64.3235 112.967C64.3235 105.032 70.5136 99.688 77.9859 99.688C84.0814 99.688 89.3729 103.429 90.7707 109.32L83.2827 111.117C82.5838 108.075 80.5344 106.677 77.9859 106.677C74.3969 106.677 71.9954 109.304 71.9954 112.983C71.9954 116.661 74.3969 119.288 77.9859 119.288C80.5187 119.278 82.568 117.927 83.414 114.885Z" fill="#316B6E"/>
<path d="M112.452 125.515L104.328 116.508H102.883V125.541H94.8957V89.5989H102.883V109.041H103.981L111.926 100.455H121.564L110.581 112.389L122.709 125.526L112.452 125.515Z" fill="#316B6E"/>
<path d="M134.48 93.067C134.48 95.6156 132.536 97.5126 129.84 97.5126C127.144 97.5126 125.247 95.6156 125.247 93.067C125.288 91.8697 125.792 90.7349 126.653 89.9021C127.514 89.0694 128.665 88.6039 129.863 88.6039C131.062 88.6039 132.213 89.0694 133.074 89.9021C133.935 90.7349 134.439 91.8697 134.48 93.067V93.067ZM125.846 125.515V100.455H133.833V125.515H125.846Z" fill="#316B6E"/>
<path d="M165.43 110.14V125.515H157.496V111.853C157.496 108.91 155.746 106.913 153.202 106.913C150.05 106.913 148.011 109.057 148.011 113.902V125.531H140.024V100.455H148.011V102.846C149.004 101.817 150.2 101.005 151.524 100.462C152.847 99.9195 154.269 99.6577 155.698 99.6933C161.537 99.6933 165.43 103.85 165.43 110.14Z" fill="#316B6E"/>
<path d="M196.68 123.019C196.68 130.759 190.79 135 182.655 135C176.912 135 172.519 133.003 170.076 128.962L176.712 125.368C178.609 127.612 180.007 128.463 182.603 128.463C186.25 128.463 188.846 126.314 188.846 122.373V121.674C187.048 123.219 184.552 124.07 181.305 124.07C178.072 124.072 174.971 122.79 172.684 120.506C170.397 118.221 169.111 115.122 169.109 111.89C169.107 108.657 170.389 105.556 172.673 103.269C174.957 100.981 178.057 99.6953 181.289 99.6932C184.537 99.6932 187.033 100.539 188.83 102.089V100.439H196.665L196.68 123.019ZM188.846 111.779C188.85 111.018 188.701 110.263 188.407 109.56C188.113 108.858 187.68 108.222 187.135 107.69C186.589 107.159 185.942 106.743 185.232 106.468C184.522 106.193 183.763 106.064 183.002 106.088C179.508 106.088 177.012 108.432 177.012 111.779C177.012 115.126 179.508 117.517 183.002 117.517C183.766 117.536 184.526 117.402 185.236 117.121C185.947 116.841 186.594 116.421 187.139 115.886C187.684 115.35 188.116 114.711 188.409 114.006C188.702 113.3 188.851 112.543 188.846 111.779V111.779Z" fill="#316B6E"/>
<path d="M28.0131 48.617L19.926 50.267C19.3217 47.1457 16.7312 45.5692 14.0828 45.5692C11.3345 45.5692 9.58993 47.0669 9.58993 48.9638C9.58993 50.309 10.189 51.3074 12.2856 51.7594L19.2272 53.3043C25.0074 54.6022 28.4125 57.7498 28.4125 63.0413C28.4125 70.1773 22.07 73.8714 14.6345 73.8714C7.09392 73.8766 0.903818 70.2666 0 63.7455L8.48643 62.0955C9.33245 65.5426 11.7339 67.0402 15.0759 67.0402C18.171 67.0402 20.0206 65.6424 20.0206 63.5931C20.0206 62.0955 19.3165 61.1496 16.9256 60.6504L9.93675 59.1528C5.14441 58.0546 0.951112 55.5585 0.951112 49.4683C0.951112 42.9787 6.33724 38.9588 14.1773 38.9588C21.4709 38.9325 26.7625 42.5267 28.0131 48.617Z" fill="#E03F13"/>
<path d="M58.5117 57.7551V73.1305H50.5718V59.4681C50.5718 56.5202 48.8272 54.5234 46.2787 54.5234C43.1258 54.5234 41.087 56.6726 41.087 61.5122V73.1463H33.105V48.0706H41.0922V50.4667C42.086 49.4382 43.2822 48.6269 44.6055 48.0842C45.9287 47.5416 47.3501 47.2792 48.7799 47.3139C54.618 47.3191 58.5117 51.4651 58.5117 57.7551Z" fill="#E03F13"/>
<path d="M90.3083 73.1305H82.321V71.1337C80.3768 72.8782 77.7809 73.8766 74.5335 73.8766C67.8967 73.8766 62.3057 68.5378 62.3057 60.5979C62.3057 52.6579 67.8967 47.3191 74.5335 47.3191C77.7809 47.3191 80.3768 48.3175 82.321 50.0673V48.0705H90.3083V73.1305ZM82.321 60.5979C82.321 56.7566 79.4257 54.1082 76.1835 54.1082C72.6891 54.1082 70.1405 56.7356 70.1405 60.5979C70.1405 64.4601 72.6891 67.1138 76.194 67.1138C79.4257 67.1138 82.321 64.4864 82.321 60.5979V60.5979Z" fill="#E03F13"/>
<path d="M124.107 60.5979C124.107 68.5378 118.516 73.8766 111.874 73.8766C108.632 73.8766 106.036 72.8782 104.086 71.1337V81.6169H96.099V48.0705H104.086V50.0673C106.036 48.3175 108.632 47.3191 111.874 47.3191C118.516 47.3191 124.107 52.7105 124.107 60.5979ZM116.267 60.5979C116.267 56.7566 113.723 54.1082 110.229 54.1082C106.982 54.1082 104.086 56.7356 104.086 60.5979C104.086 64.4601 106.982 67.1138 110.229 67.1138C113.723 67.1138 116.267 64.4864 116.267 60.5979Z" fill="#E03F13"/>
</svg>
